<svg xmlns="http://www.w3.org/2000/svg" width="220" height="110" viewBox="0 0 220 110" role="img">
  <title>Neurotropy Logo</title>
  <desc>Stilisierter Kopf mit EEG-Welle als Stirnband — Warm up for the Brain</desc>

  <g transform="translate(110,42)">
    <path d="M0,-38 C16,-38 29,-26 31,-12 C33,2 28,10 26,16 C24,20 25,24 23,29 C21,34 16,36 11,36 L8,36 L8,40 L-8,40 L-8,36 L-11,36 C-16,36 -21,34 -23,29 C-25,24 -24,20 -26,16 C-28,10 -33,2 -31,-12 C-29,-26 -16,-38 0,-38 Z"
      fill="none" stroke="#4c1d95" stroke-width="1.6" stroke-linecap="round" stroke-linejoin="round"/>
    <path d="M-8,40 C-13,43 -22,44 -31,42" fill="none" stroke="#4c1d95" stroke-width="1.2" stroke-linecap="round" opacity="0.6"/>
    <path d="M8,40 C13,43 22,44 31,42" fill="none" stroke="#4c1d95" stroke-width="1.2" stroke-linecap="round" opacity="0.6"/>
    <polyline points="-31,-8 -21,-8" fill="none" stroke="#a855f7" stroke-width="1.4" stroke-linecap="round"/>
    <polyline points="-21,-8 -14,-20 -6,-2 0,-24 6,-2 14,-20 21,-8" fill="none" stroke="#a855f7" stroke-width="2" stroke-linecap="round" stroke-linejoin="round"/>
    <polyline points="21,-8 31,-8" fill="none" stroke="#a855f7" stroke-width="1.4" stroke-linecap="round"/>
    <circle cx="-31" cy="-8" r="2.5" fill="#a855f7"/>
    <circle cx="31" cy="-8" r="2.5" fill="#a855f7"/>
    <circle cx="0" cy="-14" r="2" fill="#7c3aed" opacity="0.5"/>
  </g>

  <text x="110" y="85" text-anchor="middle"
    font-family="-apple-system,'Helvetica Neue',Arial,sans-serif"
    font-weight="700" font-size="17" letter-spacing="5" fill="#f0e6ff">NEUROTROPY</text>

  <text x="110" y="106" text-anchor="middle"
    font-family="-apple-system,'Helvetica Neue',Arial,sans-serif"
    font-weight="400" font-size="9" letter-spacing="2.5" fill="#d8b4fe">WARM UP YOUR BRAIN</text>

  <line x1="52" y1="97" x2="78" y2="97" stroke="#a855f7" stroke-width="0.4" opacity="0.3"/>
  <line x1="142" y1="97" x2="168" y2="97" stroke="#a855f7" stroke-width="0.4" opacity="0.3"/>
</svg>
